<?xml version="1.0" encoding="UTF-8"?>
<svg width="230px" height="50px" viewBox="0 0 230 50" version="1.1" xmlns="http://www.w3.org/2000/svg" xmlns:xlink="http://www.w3.org/1999/xlink">
    <!-- Generator: Sketch 49.3 (51167) - http://www.bohemiancoding.com/sketch -->
    <title>transparencee-logo</title>
    <desc>Created with Sketch.</desc>
    <defs>
        <path d="M32.063,15.509 C32.02,15.401 31.898,15.346 31.788,15.391 L31.784,15.393 L30.208,11.445 L25.062,12.491 L27.089,17.571 L32.45,16.481 L32.063,15.509 Z" id="path-1"></path>
    </defs>
    <g id="Page-1" stroke="none" stroke-width="1" fill="none" fill-rule="evenodd">
        <g id="Artboard" transform="translate(-60.000000, -17.000000)">
            <g id="transparencee-logo" transform="translate(60.000000, 17.359375)">
                <path d="M229.644,26.762 C229.593,24.951 229.006,23.522 227.885,22.451 C226.762,21.355 225.359,20.818 223.675,20.818 C221.941,20.818 220.487,21.379 219.314,22.527 C218.14,23.65 217.553,25.129 217.553,26.99 C217.553,28.855 218.14,30.359 219.314,31.508 C220.488,32.654 221.941,33.242 223.675,33.242 C225.589,33.242 227.17,32.603 228.368,31.353 C228.802,30.869 228.802,30.078 228.317,29.697 C227.731,29.289 227.118,29.388 226.633,29.797 C225.69,30.588 224.949,30.945 223.802,30.945 C221.864,30.945 220.384,29.797 220.155,27.961 L228.444,27.961 C229.083,27.961 229.644,27.451 229.644,26.762 Z M220.156,26.049 C220.385,24.237 221.813,23.115 223.676,23.115 C225.488,23.115 226.839,24.211 227.069,26.049 L220.156,26.049 Z M215.616,26.762 C215.564,24.951 214.978,23.522 213.856,22.451 C212.734,21.355 211.33,20.818 209.646,20.818 C207.913,20.818 206.458,21.379 205.285,22.527 C204.112,23.65 203.525,25.129 203.525,26.99 C203.525,28.855 204.112,30.359 205.285,31.508 C206.459,32.654 207.913,33.242 209.646,33.242 C211.56,33.242 213.141,32.603 214.339,31.353 C214.773,30.869 214.773,30.078 214.289,29.697 C213.702,29.289 213.09,29.388 212.605,29.797 C211.661,30.588 210.921,30.945 209.773,30.945 C207.835,30.945 206.356,29.797 206.126,27.961 L214.416,27.961 C215.054,27.961 215.616,27.451 215.616,26.762 Z M206.126,26.049 C206.356,24.237 207.784,23.115 209.646,23.115 C211.458,23.115 212.81,24.211 213.04,26.049 L206.126,26.049 Z M197.428,20.818 C195.667,20.818 194.163,21.406 192.912,22.552 C191.688,23.7 191.076,25.206 191.076,27.042 C191.076,28.878 191.688,30.384 192.912,31.53 C194.163,32.678 195.667,33.241 197.428,33.241 C198.83,33.241 200.03,32.884 201.075,32.143 C201.61,31.76 201.764,31.02 201.381,30.383 C201.05,29.848 200.106,29.719 199.569,30.102 C198.907,30.485 198.192,30.69 197.427,30.69 C196.381,30.69 195.514,30.358 194.774,29.669 C194.035,28.98 193.677,28.112 193.677,27.042 C193.677,25.97 194.034,25.104 194.774,24.415 C195.514,23.726 196.407,23.368 197.427,23.368 C198.192,23.368 198.906,23.571 199.569,23.956 C200.105,24.339 201.049,24.21 201.381,23.675 C201.765,23.038 201.61,22.296 201.075,21.915 C200.03,21.176 198.831,20.818 197.428,20.818 Z M179.521,26.48 C179.521,25.128 179.904,24.134 180.694,23.498 C181.486,22.834 182.404,22.502 183.474,22.502 C185.311,22.502 186.382,23.83 186.382,26.049 L186.382,32.248 C186.306,33.369 188.144,33.369 188.066,32.248 L188.066,26.049 C188.091,22.783 186.357,20.819 183.474,20.819 C181.944,20.819 180.21,21.585 179.521,23.04 L179.521,21.813 C179.597,20.691 177.761,20.691 177.837,21.813 L177.837,32.249 C177.761,33.37 179.597,33.37 179.521,32.249 L179.521,26.48 Z M173.833,30.793 C174.114,30.385 173.986,29.85 173.578,29.619 C173.195,29.338 172.788,29.441 172.404,29.926 C171.486,31.022 170.338,31.559 168.935,31.559 C166.691,31.559 164.956,30.053 164.65,27.784 L173.986,27.784 C174.393,27.784 174.777,27.425 174.777,26.991 C174.777,25.13 174.241,23.626 173.144,22.503 C172.046,21.38 170.644,20.819 168.935,20.819 C167.201,20.819 165.772,21.38 164.624,22.528 C163.476,23.651 162.914,25.13 162.914,26.991 C162.914,28.856 163.476,30.36 164.624,31.509 C165.771,32.655 167.226,33.243 168.935,33.243 C170.951,33.242 172.788,32.348 173.833,30.793 Z M164.65,26.201 C164.981,23.957 166.691,22.502 168.935,22.502 C171.103,22.502 172.71,23.93 173.041,26.201 L164.65,26.201 Z M160.722,22.631 C161.308,22.731 161.665,22.553 161.819,22.121 C161.947,21.635 161.716,21.176 161.282,21.048 C160.848,20.895 160.363,20.819 159.829,20.819 C158.121,20.819 156.973,21.813 156.41,23.778 L156.41,21.813 C156.487,20.691 154.651,20.691 154.726,21.813 L154.726,32.249 C154.651,33.37 156.487,33.37 156.41,32.249 L156.41,28.548 C156.41,26.839 156.691,25.411 157.252,24.263 C157.84,23.117 158.681,22.529 159.829,22.529 C159.982,22.527 160.287,22.553 160.722,22.631 Z M150.67,21.812 C150.747,20.69 148.911,20.69 148.987,21.812 L148.987,23.039 C148.144,21.609 146.334,20.818 144.497,20.818 C142.763,20.818 141.309,21.379 140.136,22.527 C138.988,23.65 138.402,25.129 138.402,26.99 C138.402,28.855 138.988,30.359 140.136,31.508 C141.309,32.654 142.763,33.242 144.497,33.242 C146.308,33.242 148.144,32.4 148.987,30.945 L148.987,32.248 C148.911,33.369 150.747,33.369 150.67,32.248 L150.67,21.812 Z M140.11,26.99 C140.11,25.64 140.518,24.568 141.361,23.752 C142.202,22.936 143.248,22.527 144.498,22.527 C145.672,22.527 146.718,22.935 147.609,23.726 C148.527,24.517 148.988,25.615 148.988,26.99 C148.988,28.394 148.554,29.517 147.686,30.334 C146.844,31.125 145.773,31.531 144.498,31.531 C143.248,31.531 142.202,31.097 141.361,30.256 C140.518,29.389 140.11,28.293 140.11,26.99 Z M125.316,31.049 C126.158,32.477 127.969,33.242 129.805,33.242 C131.54,33.242 132.993,32.68 134.142,31.558 C135.315,30.435 135.902,28.954 135.902,27.093 C135.902,25.232 135.315,23.726 134.142,22.577 C132.994,21.405 131.54,20.817 129.805,20.817 C127.994,20.817 126.158,21.684 125.316,23.139 L125.316,21.811 C125.392,20.689 123.556,20.689 123.632,21.811 L123.632,38.01 C123.556,39.133 125.392,39.133 125.316,38.01 L125.316,31.049 Z M134.193,27.094 C134.193,28.446 133.785,29.518 132.943,30.334 C132.101,31.125 131.055,31.531 129.805,31.531 C128.632,31.531 127.585,31.15 126.667,30.359 C125.774,29.568 125.315,28.47 125.315,27.093 C125.315,25.691 125.749,24.568 126.59,23.751 C127.457,22.935 128.529,22.526 129.804,22.526 C131.054,22.526 132.075,22.96 132.916,23.829 C133.759,24.695 134.193,25.791 134.193,27.094 Z M112.179,30.461 C112.689,32.17 114.372,33.242 116.183,33.242 C117.433,33.242 118.454,32.91 119.296,32.271 C120.138,31.609 120.546,30.767 120.546,29.746 C120.546,27.91 119.55,26.762 117.536,26.277 L115.903,25.894 C114.55,25.562 113.964,24.9 114.142,23.906 C114.27,23.064 115.213,22.451 116.362,22.451 C117.28,22.451 117.918,22.783 118.275,23.422 C118.555,23.93 118.913,24.135 119.321,24.006 C119.755,23.879 120.06,23.397 119.882,22.961 C119.321,21.533 118.148,20.818 116.362,20.818 C114.397,20.818 112.714,21.992 112.484,23.65 C112.357,24.976 112.637,25.947 113.326,26.533 C114.04,27.068 114.602,27.324 115.495,27.527 L117.153,27.91 C118.3,28.189 118.862,28.803 118.862,29.746 C118.862,30.869 117.866,31.635 116.337,31.635 C114.984,31.635 114.118,31.125 113.71,30.104 C113.531,29.569 113.199,29.366 112.741,29.467 C112.307,29.568 112.051,30.027 112.179,30.461 Z M100.394,26.48 C100.394,25.128 100.777,24.134 101.567,23.498 C102.359,22.834 103.276,22.502 104.348,22.502 C106.184,22.502 107.256,23.83 107.256,26.049 L107.256,32.248 C107.179,33.369 109.016,33.369 108.939,32.248 L108.939,26.049 C108.965,22.783 107.231,20.819 104.348,20.819 C102.817,20.819 101.082,21.585 100.394,23.04 L100.394,21.813 C100.471,20.691 98.634,20.691 98.711,21.813 L98.711,32.249 C98.634,33.37 100.471,33.37 100.394,32.249 L100.394,26.48 Z M94.655,21.812 C94.731,20.69 92.894,20.69 92.971,21.812 L92.971,23.039 C92.129,21.609 90.318,20.818 88.481,20.818 C86.747,20.818 85.293,21.379 84.119,22.527 C82.972,23.65 82.384,25.129 82.384,26.99 C82.384,28.855 82.971,30.359 84.119,31.508 C85.293,32.654 86.746,33.242 88.481,33.242 C90.293,33.242 92.129,32.4 92.971,30.945 L92.971,32.248 C92.894,33.369 94.731,33.369 94.655,32.248 L94.655,21.812 Z M84.094,26.99 C84.094,25.64 84.502,24.568 85.344,23.752 C86.186,22.936 87.231,22.527 88.481,22.527 C89.654,22.527 90.701,22.935 91.593,23.726 C92.511,24.517 92.97,25.615 92.97,26.99 C92.97,28.394 92.536,29.517 91.669,30.334 C90.828,31.125 89.756,31.531 88.481,31.531 C87.231,31.531 86.186,31.097 85.344,30.256 C84.502,29.389 84.094,28.293 84.094,26.99 Z M80.217,22.631 C80.804,22.731 81.161,22.553 81.314,22.121 C81.441,21.635 81.212,21.176 80.778,21.048 C80.344,20.895 79.86,20.819 79.324,20.819 C77.615,20.819 76.467,21.813 75.906,23.778 L75.906,21.813 C75.982,20.691 74.146,20.691 74.222,21.813 L74.222,32.249 C74.146,33.37 75.982,33.37 75.906,32.249 L75.906,28.548 C75.906,26.839 76.186,25.411 76.747,24.263 C77.334,23.117 78.176,22.529 79.324,22.529 C79.477,22.527 79.784,22.553 80.217,22.631 Z M69.095,17.35 C69.172,16.227 67.335,16.227 67.411,17.35 L67.411,21.075 L65.906,21.075 C64.886,21.075 64.886,22.604 65.906,22.604 L67.411,22.604 L67.411,32.249 C67.335,33.37 69.172,33.37 69.095,32.249 L69.095,22.604 L70.956,22.604 C71.977,22.604 71.977,21.075 70.956,21.075 L69.095,21.075 L69.095,17.35 Z" id="Shape" fill="#FFFFFF" fill-rule="nonzero"></path>
                <g id="Group">
                    <g id="Group-3">
                        <path d="M20.573,34.713 L20.196,33.984 C20.151,33.617 19.808,32.58 19.557,32.291 C19.315,31.809 19.081,31.359 18.875,31.15 C18.818,31.093 18.736,31.074 18.661,31.095 C18.603,31.042 18.528,30.997 18.432,30.997 C18.318,30.997 18.235,31.061 18.186,31.101 C18.066,30.972 17.879,30.949 17.768,31.07 L17.383,31.263 C17.151,31.372 16.868,31.503 16.769,31.829 L15.681,32.393 C15.577,32.448 15.535,32.575 15.59,32.68 L15.591,32.682 L15.428,32.764 L16.532,29.289 L16.534,29.291 C16.649,29.324 16.765,29.264 16.802,29.152 L18.006,25.365 C18.023,25.31 18.018,25.254 17.992,25.201 C17.967,25.152 17.922,25.115 17.867,25.097 L17.864,25.095 L18.491,23.126 C18.526,23.015 18.465,22.894 18.352,22.858 L18.35,22.858 L19.913,17.942 C19.949,17.831 19.889,17.712 19.777,17.676 L19.771,17.674 L20.175,16.403 C20.197,16.333 20.181,16.253 20.131,16.198 C20,16.051 20.048,15.913 20.196,15.611 C20.284,15.431 20.384,15.227 20.381,15.007 C20.38,14.928 20.335,14.856 20.264,14.821 C20.242,14.808 20.227,14.8 20.219,14.797 C20.228,14.774 20.245,14.738 20.259,14.711 C20.275,14.678 20.292,14.643 20.307,14.607 C20.381,14.439 20.395,14.289 20.409,14.144 C20.415,14.078 20.421,14.009 20.435,13.937 C20.445,13.888 20.463,13.843 20.48,13.796 C20.512,13.708 20.55,13.607 20.557,13.48 C20.576,13.134 20.564,12.904 20.245,12.637 L20.177,12.578 C20.057,12.474 19.943,12.376 19.738,12.306 C19.688,12.29 19.614,12.277 19.534,12.265 C19.475,12.256 19.364,12.24 19.343,12.232 C19.109,12.007 18.109,11.496 17.668,11.445 C17.157,11.271 16.673,11.117 16.36,11.117 C16.277,11.119 16.205,11.166 16.171,11.238 C15.979,11.247 15.866,11.364 15.836,11.587 C15.835,11.592 15.835,11.598 15.834,11.603 C15.691,11.6 15.606,11.661 15.567,11.711 C15.544,11.742 15.511,11.799 15.513,11.879 L15.369,12.315 C15.278,12.567 15.165,12.874 15.325,13.186 L14.93,14.426 C14.895,14.539 14.956,14.658 15.068,14.694 L15.07,14.695 L14.979,14.983 C14.962,15.038 14.967,15.095 14.993,15.145 C15.019,15.196 15.063,15.233 15.117,15.25 L15.12,15.251 L14.561,17.012 C14.544,17.065 14.549,17.123 14.575,17.174 C14.602,17.225 14.646,17.262 14.7,17.278 L14.702,17.279 L13.318,21.633 C13.283,21.744 13.344,21.863 13.454,21.901 L13.46,21.902 L11.426,28.319 C11.283,28.563 11.223,28.852 11.165,29.131 C11.08,29.545 11.006,29.902 10.702,30.067 C10.683,30.077 10.666,30.09 10.651,30.104 C10.517,30.239 10.498,30.426 10.483,30.579 C10.459,30.817 10.445,30.817 10.332,30.817 C10.246,30.817 10.155,30.876 10.126,30.965 L10.029,31.27 C9.934,31.389 9.923,31.541 9.915,31.657 C9.912,31.706 9.905,31.788 9.901,31.802 L9.81,31.806 C9.706,31.794 9.616,31.857 9.586,31.952 L9.523,32.161 C9.398,32.587 9.29,32.958 8.871,33.085 C8.819,33.101 8.774,33.136 8.747,33.185 C8.309,33.968 7.872,34.73 7.355,35.412 C7.279,35.256 7.181,35.109 7.084,34.965 C6.866,34.637 6.676,34.354 6.78,34.041 C6.786,34.023 6.79,34 6.79,33.979 C6.792,33.79 6.674,33.647 6.58,33.536 C6.443,33.37 6.444,33.37 6.53,33.288 C6.599,33.224 6.616,33.12 6.573,33.036 L6.436,32.77 C6.421,32.622 6.323,32.51 6.248,32.426 C6.219,32.395 6.171,32.34 6.164,32.338 C6.164,32.338 6.174,32.315 6.228,32.272 C6.308,32.21 6.332,32.098 6.285,32.008 L6.185,31.822 C5.955,31.4 5.824,31.125 6.023,30.777 C6.05,30.728 6.058,30.67 6.043,30.615 C5.662,29.207 5.377,28.027 5.47,26.748 C5.473,26.707 5.465,26.67 5.446,26.633 L5.064,25.897 C5.053,25.876 5.041,25.858 5.024,25.842 C4.99,25.807 4.834,25.686 4.596,25.815 C4.553,25.811 4.513,25.805 4.473,25.799 C4.2,25.762 3.894,25.791 3.482,26 C3.48,26 3.479,26 3.479,26 C3.012,26 2.249,26.371 1.079,27.168 C0.897,27.295 0.695,27.441 0.56,27.59 C0.457,27.639 0.356,27.709 0.319,27.822 C0.299,27.879 0.302,27.933 0.313,27.976 C0.277,27.994 0.223,28.015 0.143,28.044 C0.084,28.064 0.038,28.108 0.016,28.165 C-0.007,28.222 -0.005,28.286 0.024,28.343 L0.149,28.583 C0.158,28.603 0.143,28.675 0.133,28.722 C0.112,28.82 0.08,28.972 0.143,29.118 C0.114,29.155 0.091,29.198 0.08,29.247 C0.051,29.374 0.108,29.47 0.159,29.544 C0.139,30.126 0.318,30.667 0.531,31.171 C0.487,31.216 0.45,31.273 0.435,31.341 C0.404,31.478 0.476,31.581 0.514,31.636 C0.514,31.636 0.523,31.652 0.531,31.665 C0.473,31.735 0.442,31.808 0.433,31.886 C0.415,32.066 0.529,32.189 0.612,32.281 C0.636,32.306 0.676,32.349 0.681,32.34 C0.674,32.383 0.682,32.426 0.702,32.465 L0.759,32.574 C0.703,32.646 0.672,32.722 0.665,32.803 C0.648,32.989 0.767,33.121 0.854,33.219 C0.882,33.25 0.931,33.305 0.937,33.315 C0.935,33.335 0.937,33.356 0.94,33.374 C0.986,33.608 1.124,33.806 1.256,33.995 C1.46,34.288 1.58,34.477 1.47,34.702 C1.441,34.763 1.441,34.833 1.473,34.893 L1.568,35.075 L1.564,35.079 C1.461,35.132 1.42,35.261 1.474,35.364 L3.138,38.577 C3.087,38.602 3.049,38.647 3.032,38.702 C3.014,38.755 3.019,38.813 3.045,38.862 L4.164,41.024 C4.833,42.317 6.154,43.12 7.612,43.12 C8.226,43.12 8.841,42.97 9.391,42.686 L10.573,42.073 C10.623,42.048 10.661,42.003 10.678,41.948 C10.695,41.895 10.69,41.837 10.664,41.786 L10.663,41.784 L12.393,40.888 C12.443,40.863 12.48,40.818 12.498,40.765 C12.515,40.71 12.51,40.652 12.484,40.603 L12.478,40.6 L16.807,38.36 C16.911,38.305 16.952,38.178 16.898,38.073 L16.896,38.069 L18.007,37.495 C18.075,37.46 18.118,37.391 18.122,37.313 C18.128,37.125 18.243,37.069 18.543,36.969 C18.727,36.908 18.934,36.84 19.08,36.684 C19.134,36.625 19.152,36.543 19.126,36.469 C19.115,36.438 19.11,36.416 19.106,36.407 C19.13,36.399 19.167,36.391 19.192,36.386 C19.292,36.365 19.434,36.335 19.527,36.222 L19.619,36.173 C19.708,36.124 19.796,36.077 19.894,36.032 C20.17,35.907 20.212,35.862 20.313,35.577 C20.336,35.513 20.375,35.448 20.417,35.38 C20.506,35.232 20.617,35.048 20.596,34.794 C20.593,34.766 20.585,34.736 20.573,34.713 Z" id="Shape" fill="#FFFFFF" fill-rule="nonzero"></path>
                        <path d="M45.625,34.838 C45.603,34.783 45.545,34.736 45.492,34.715 C45.452,34.699 45.415,34.684 45.384,34.67 C45.392,34.672 45.399,34.672 45.404,34.672 C45.489,34.672 45.573,34.619 45.608,34.543 C45.642,34.463 45.625,34.371 45.565,34.309 C45.52,34.26 45.507,34.223 45.487,34.153 C45.462,34.063 45.425,33.94 45.305,33.819 C45.286,33.798 45.263,33.782 45.237,33.77 L44.483,33.446 C44.216,33.192 43.293,32.608 42.916,32.546 C42.423,32.325 41.959,32.126 41.663,32.097 C41.585,32.093 41.509,32.124 41.466,32.189 C41.275,32.169 41.147,32.281 41.1,32.496 C40.954,32.478 40.859,32.537 40.816,32.59 C40.794,32.615 40.763,32.664 40.757,32.736 L40.583,33.131 C40.472,33.363 40.337,33.643 40.467,33.959 L39.986,35.084 C39.938,35.191 39.988,35.316 40.095,35.363 L40.099,35.365 L39.99,35.617 C39.968,35.67 39.967,35.728 39.988,35.781 C40.009,35.834 40.05,35.875 40.102,35.896 L40.104,35.898 L39.799,36.609 C39.79,36.595 39.781,36.58 39.773,36.566 C39.706,36.455 39.631,36.328 39.632,36.254 C39.632,36.227 39.627,36.199 39.617,36.174 L39.487,35.848 C39.704,35.547 39.504,35.2 39.364,34.961 C39.287,34.828 39.207,34.69 39.199,34.557 C39.124,34.213 38.954,33.866 38.788,33.53 C38.534,33.01 38.293,32.522 38.411,32.112 C38.424,32.069 38.422,32.018 38.404,31.975 L38.213,31.498 L38.215,31.498 C38.267,31.477 38.31,31.436 38.332,31.385 C38.354,31.332 38.355,31.274 38.334,31.221 L35.948,25.248 L35.95,25.246 C36.002,25.226 36.044,25.185 36.067,25.133 C36.089,25.082 36.09,25.024 36.069,24.971 L33.65,18.91 C33.628,18.857 33.588,18.814 33.535,18.793 C33.482,18.772 33.423,18.77 33.372,18.791 L33.37,18.793 L32.06,15.511 C32.017,15.403 31.895,15.348 31.785,15.393 L31.781,15.395 L28.591,7.401 C28.57,7.348 28.529,7.305 28.476,7.284 C28.426,7.263 28.366,7.262 28.314,7.282 L28.31,7.282 L27.449,5.124 C27.428,5.071 27.386,5.028 27.332,5.007 C27.027,4.88 26.901,4.46 26.77,4.014 C26.679,3.71 26.585,3.394 26.421,3.146 C26.377,3.078 26.271,3.046 26.185,3.054 C26.116,3.054 26.081,3.005 26.015,2.712 C25.975,2.536 25.934,2.357 25.824,2.222 L25.385,1.126 C25.338,1.019 25.211,0.97 25.106,1.019 C25.102,1.02 25.099,1.022 25.095,1.023 C25.053,0.955 24.996,0.908 24.953,0.873 C24.927,0.852 24.904,0.834 24.892,0.816 C24.892,0.816 24.891,0.814 24.89,0.812 C24.949,0.726 24.965,0.648 24.943,0.57 C24.922,0.498 24.849,0.429 24.775,0.412 C24.697,0.392 24.635,0.334 24.557,0.263 C24.459,0.172 24.337,0.059 24.153,0.011 C24.109,3.22060087e-14 24.063,0.002 24.022,0.02 L23.283,0.315 C23.203,0.301 23.104,0.294 22.984,0.294 C22.741,0.294 21.758,0.36 21.442,0.659 C20.93,0.847 20.459,1.038 20.243,1.296 C20.193,1.357 20.18,1.44 20.209,1.511 L20.239,1.587 C20.2,1.628 20.172,1.675 20.155,1.728 C20.1,1.901 20.182,2.058 20.242,2.173 C20.276,2.237 20.35,2.267 20.424,2.269 C20.314,2.339 20.224,2.427 20.2,2.55 C20.186,2.62 20.188,2.718 20.269,2.825 L20.564,3.577 C20.722,4.002 20.884,4.441 21.244,4.685 L22.07,6.752 C22.114,6.861 22.236,6.914 22.346,6.871 L22.348,6.871 L22.583,7.459 C22.604,7.512 22.645,7.553 22.697,7.575 C22.75,7.597 22.808,7.597 22.86,7.576 L22.862,7.576 L24.038,10.521 C24.059,10.574 24.1,10.615 24.151,10.636 C24.204,10.657 24.262,10.659 24.315,10.638 L24.317,10.638 L27.15,17.734 C27.171,17.787 27.213,17.83 27.265,17.851 C27.318,17.872 27.376,17.872 27.429,17.851 L31.598,28.287 C31.7,28.697 31.899,29.117 32.092,29.523 C32.398,30.166 32.687,30.773 32.601,31.361 C32.619,31.584 32.736,31.795 32.85,32 C33.034,32.33 33.108,32.502 32.991,32.631 C32.937,32.69 32.922,32.777 32.952,32.852 L33.163,33.379 C33.181,33.565 33.281,33.736 33.378,33.904 C33.565,34.228 33.569,34.299 33.482,34.373 C33.413,34.432 33.39,34.529 33.422,34.613 L33.557,34.943 C33.847,35.64 34.12,36.298 33.915,36.865 C33.901,36.906 33.898,36.949 33.909,36.992 C34.43,38.98 34.876,40.781 35.051,42.56 C35.025,42.55 34.999,42.544 34.972,42.535 C34.593,42.42 34.264,42.318 34.145,42.008 C34.137,41.988 34.126,41.969 34.113,41.951 C34,41.801 33.82,41.766 33.675,41.74 C33.464,41.699 33.464,41.697 33.479,41.58 C33.49,41.486 33.439,41.396 33.352,41.359 L33.078,41.242 C32.973,41.135 32.826,41.111 32.714,41.094 C32.672,41.088 32.606,41.076 32.593,41.078 C32.593,41.078 32.586,41.055 32.601,40.988 C32.622,40.888 32.571,40.789 32.478,40.748 L32.282,40.668 C31.836,40.488 31.561,40.357 31.492,39.961 C31.483,39.906 31.451,39.857 31.406,39.824 C30.26,39.008 29.249,38.248 28.509,37.201 C28.488,37.17 28.456,37.144 28.42,37.129 L27.65,36.797 C27.632,36.791 27.569,36.783 27.55,36.779 C27.37,36.779 27.283,36.929 27.241,37.033 C27.207,37.058 27.172,37.078 27.138,37.099 C26.949,37.216 26.735,37.347 26.499,37.88 C26.135,38.179 25.788,38.935 25.384,40.31 C25.324,40.523 25.261,40.765 25.25,40.964 C25.203,41.069 25.169,41.187 25.211,41.298 C25.233,41.355 25.269,41.394 25.305,41.421 C25.288,41.458 25.261,41.509 25.217,41.581 C25.184,41.634 25.177,41.698 25.196,41.757 C25.215,41.816 25.258,41.864 25.315,41.888 L25.562,41.993 C25.583,42.003 25.617,42.069 25.639,42.112 C25.685,42.2 25.753,42.331 25.898,42.403 C25.898,42.454 25.908,42.503 25.932,42.551 C25.99,42.668 26.096,42.705 26.181,42.729 C26.534,43.19 27.015,43.497 27.501,43.75 C27.495,43.814 27.502,43.881 27.534,43.943 C27.597,44.07 27.719,44.105 27.783,44.123 C27.783,44.123 27.799,44.129 27.813,44.135 C27.812,44.225 27.834,44.301 27.877,44.367 C27.977,44.515 28.144,44.539 28.265,44.556 C28.303,44.562 28.359,44.57 28.354,44.558 C28.377,44.595 28.412,44.624 28.451,44.642 L28.566,44.691 C28.568,44.783 28.593,44.861 28.638,44.927 C28.742,45.079 28.918,45.109 29.046,45.128 C29.088,45.134 29.16,45.146 29.171,45.149 C29.182,45.167 29.196,45.182 29.212,45.194 C29.396,45.346 29.628,45.411 29.851,45.473 C30.194,45.569 30.406,45.639 30.463,45.881 C30.479,45.945 30.524,46 30.587,46.026 L30.776,46.108 L30.774,46.112 C30.752,46.163 30.751,46.223 30.772,46.274 C30.793,46.327 30.834,46.37 30.886,46.391 L34.212,47.819 L34.21,47.823 C34.164,47.93 34.214,48.053 34.322,48.1 L36.557,49.059 C37.045,49.27 37.558,49.375 38.084,49.375 C39.636,49.375 41.036,48.453 41.649,47.025 L42.173,45.802 C42.22,45.695 42.17,45.572 42.063,45.525 L42.058,45.523 L42.827,43.732 C42.873,43.625 42.823,43.5 42.716,43.453 L42.715,43.453 L44.637,38.973 C44.659,38.922 44.636,38.854 44.615,38.801 C44.599,38.764 44.561,38.725 44.521,38.697 L45.016,37.545 C45.047,37.473 45.036,37.391 44.989,37.33 C44.874,37.182 44.927,37.064 45.096,36.797 C45.199,36.633 45.315,36.449 45.329,36.236 C45.333,36.158 45.295,36.084 45.229,36.041 C45.201,36.023 45.183,36.01 45.174,36.004 C45.187,35.984 45.211,35.955 45.227,35.934 C45.29,35.856 45.381,35.743 45.382,35.596 L45.636,35.006 C45.662,34.957 45.647,34.891 45.625,34.838 Z" id="Shape" fill="#FFFFFF" fill-rule="nonzero"></path>
                        <path d="M53.588,13.742 C53.42,12.721 52.863,11.824 52.022,11.221 L50.94,10.447 C50.846,10.38 50.714,10.401 50.645,10.495 L50.643,10.499 L49.06,9.362 C48.966,9.296 48.833,9.317 48.764,9.411 L48.762,9.415 L44.8,6.572 C44.754,6.539 44.697,6.525 44.641,6.535 C44.586,6.545 44.536,6.576 44.503,6.621 L44.501,6.625 L43.483,5.895 C43.421,5.851 43.339,5.842 43.269,5.875 C43.08,5.963 42.944,5.826 42.773,5.658 C42.635,5.521 42.48,5.367 42.273,5.308 C42.196,5.286 42.116,5.308 42.062,5.363 C42.039,5.387 42.021,5.402 42.014,5.411 C41.997,5.392 41.973,5.365 41.957,5.344 C41.893,5.266 41.803,5.155 41.665,5.121 C41.639,5.1 41.61,5.076 41.582,5.051 C41.47,4.957 41.343,4.852 41.203,4.803 C41.082,4.76 41.026,4.776 40.885,4.795 C40.885,4.795 40.869,4.795 40.853,4.794 C40.833,4.697 40.748,4.625 40.645,4.625 L40.639,4.625 C40.637,4.625 40.636,4.625 40.633,4.625 C40.63,4.625 40.627,4.625 40.625,4.625 L40.625,4.623 C40.619,4.623 39.982,4.67 39.842,4.868 C39.838,4.874 39.461,5.398 39.36,5.538 C39.055,5.744 38.286,6.52 38.143,6.875 C37.812,7.326 37.531,7.723 37.439,8 C37.413,8.078 37.433,8.16 37.487,8.215 C37.469,8.276 37.464,8.342 37.482,8.408 C37.522,8.549 37.641,8.607 37.706,8.638 C37.674,8.73 37.668,8.814 37.711,8.895 C37.744,8.958 37.8,9.003 37.869,9.023 L38.215,9.277 C38.422,9.439 38.678,9.627 38.998,9.568 L39.777,10.129 C39.694,10.149 39.614,10.182 39.534,10.211 C39.429,10.251 39.32,10.293 39.245,10.293 C39.244,10.293 39.176,10.287 39.176,10.287 C38.86,10.291 38.53,10.389 38.212,10.482 C37.721,10.628 37.256,10.738 36.962,10.568 C36.917,10.541 36.864,10.531 36.814,10.543 L36.401,10.627 L36.401,10.625 C36.39,10.57 36.357,10.521 36.31,10.49 C36.263,10.459 36.206,10.449 36.15,10.459 L30.659,11.572 L30.658,11.57 C30.634,11.455 30.52,11.381 30.408,11.404 L24.812,12.541 C24.757,12.553 24.708,12.586 24.677,12.633 C24.646,12.68 24.635,12.737 24.646,12.792 L24.647,12.795 L21.642,13.404 C21.587,13.416 21.538,13.447 21.507,13.496 C21.475,13.543 21.464,13.6 21.476,13.656 L21.476,13.658 L14.12,15.152 C14.064,15.164 14.016,15.197 13.984,15.244 C13.953,15.292 13.942,15.349 13.954,15.405 L13.954,15.406 L11.986,15.806 C11.925,15.818 11.872,15.857 11.842,15.911 C11.7,16.167 11.328,16.204 10.934,16.241 C10.654,16.27 10.363,16.298 10.118,16.409 C10.044,16.444 9.995,16.516 9.993,16.598 C9.991,16.688 9.991,16.707 9.703,16.713 C9.55,16.717 9.377,16.721 9.235,16.803 L8.327,16.987 C8.286,16.996 8.244,17.005 8.209,17.018 C8.147,17.039 8.103,17.102 8.084,17.168 C8.013,17.199 7.963,17.246 7.925,17.281 C7.909,17.297 7.893,17.312 7.873,17.328 C7.833,17.357 7.82,17.359 7.774,17.368 C7.732,17.375 7.676,17.385 7.603,17.416 C7.516,17.455 7.01,17.807 7.061,18.121 L7.222,18.91 C7.109,19.291 7.051,20.385 7.273,20.76 C7.367,21.297 7.47,21.795 7.665,22.053 C7.714,22.118 7.796,22.151 7.878,22.133 L7.921,22.125 C8.016,22.258 8.146,22.281 8.227,22.281 C8.315,22.281 8.397,22.254 8.462,22.232 C8.507,22.216 8.544,22.189 8.57,22.152 C8.655,22.324 8.84,22.443 9.035,22.338 L9.71,22.205 C10.09,22.141 10.519,22.066 10.792,21.761 L12.686,21.376 C12.801,21.354 12.875,21.242 12.853,21.127 L12.852,21.123 L13.37,21.018 C13.426,21.006 13.474,20.973 13.505,20.926 C13.536,20.879 13.547,20.821 13.536,20.766 L13.536,20.764 L16.228,20.217 C16.343,20.194 16.417,20.08 16.394,19.967 L16.394,19.963 L22.923,18.637 C23.032,18.616 23.101,18.494 23.087,18.383 L32.692,16.429 C33.069,16.412 33.463,16.301 33.845,16.196 C34.453,16.026 35.038,15.891 35.441,16.058 C35.458,16.065 35.476,16.069 35.493,16.073 C35.694,16.098 35.906,16.026 36.105,15.955 C36.318,15.88 36.503,15.754 36.634,15.941 C36.683,16.01 36.766,16.045 36.85,16.028 L37.332,15.931 C37.503,15.948 37.672,15.885 37.832,15.823 C37.937,15.782 38.046,15.741 38.121,15.741 C38.149,15.741 38.179,15.741 38.218,15.815 C38.262,15.899 38.358,15.946 38.448,15.924 L38.751,15.859 C39.426,15.712 40.045,15.624 40.445,15.894 C40.483,15.92 40.529,15.936 40.576,15.93 C41.544,15.872 42.491,15.821 43.428,15.821 C44.554,15.821 45.52,15.897 46.379,16.058 C46.407,16.063 46.435,16.063 46.461,16.057 L46.75,16 L46.669,16.115 C46.461,16.295 46.324,16.539 46.19,16.777 C45.997,17.121 45.829,17.418 45.503,17.467 C45.482,17.47 45.461,17.478 45.441,17.486 C45.271,17.57 45.199,17.74 45.141,17.875 C45.051,18.085 45.069,18.076 44.945,18.031 C44.853,18 44.755,18.029 44.699,18.107 L44.525,18.351 C44.4,18.431 44.346,18.57 44.305,18.673 C44.29,18.714 44.263,18.78 44.264,18.788 C44.26,18.788 44.233,18.788 44.177,18.761 C44.084,18.718 43.974,18.747 43.916,18.83 L43.798,19 C43.535,19.388 43.354,19.625 42.938,19.625 C42.937,19.625 42.937,19.625 42.937,19.625 C42.882,19.619 42.826,19.643 42.785,19.679 C41.7,20.66 40.777,21.45 39.601,21.946 C39.565,21.962 39.534,21.987 39.511,22.018 L39.022,22.7 C39.012,22.716 39.003,22.731 38.997,22.749 C38.923,22.95 39.065,23.081 39.164,23.149 C39.181,23.188 39.193,23.225 39.206,23.262 C39.28,23.473 39.362,23.709 39.834,24.055 C40.046,24.475 40.709,24.977 41.964,25.666 C42.228,25.809 42.42,25.893 42.575,25.936 C42.784,26.092 42.946,26.055 43.033,25.981 C43.064,26.006 43.109,26.043 43.171,26.102 C43.211,26.141 43.263,26.161 43.317,26.161 C43.324,26.161 43.33,26.161 43.337,26.161 C43.398,26.155 43.454,26.124 43.489,26.075 L43.649,25.854 C43.663,25.836 43.734,25.817 43.781,25.803 C43.876,25.778 44.026,25.739 44.129,25.617 C44.334,25.65 44.447,25.506 44.501,25.406 C45.027,25.162 45.43,24.756 45.782,24.338 C46.028,24.414 46.163,24.221 46.203,24.143 C46.203,24.143 46.214,24.129 46.223,24.116 C46.55,24.186 46.683,23.897 46.732,23.764 C46.745,23.729 46.764,23.676 46.754,23.676 C46.795,23.66 46.83,23.635 46.855,23.6 L46.927,23.498 C47.264,23.566 47.4,23.271 47.458,23.123 C47.474,23.082 47.5,23.014 47.506,23.004 C47.526,22.998 47.542,22.988 47.558,22.975 C47.745,22.829 47.858,22.616 47.967,22.412 C48.134,22.099 48.25,21.905 48.498,21.901 C48.565,21.899 48.628,21.866 48.667,21.813 L48.787,21.646 L48.788,21.647 C48.882,21.713 49.015,21.694 49.084,21.598 L51.194,18.657 L51.196,18.659 C51.291,18.725 51.423,18.705 51.491,18.61 L52.91,16.631 C53.518,15.789 53.757,14.764 53.588,13.742 Z" id="Shape" fill="#FFFFFF" fill-rule="nonzero"></path>
                        <path d="M19.777,17.68 L19.771,17.678 L20.175,16.407 C20.197,16.337 20.181,16.257 20.131,16.202 C20,16.055 20.048,15.917 20.196,15.615 C20.284,15.435 20.384,15.231 20.381,15.011 C20.38,14.932 20.335,14.86 20.264,14.825 C20.242,14.812 20.227,14.804 20.219,14.801 C20.228,14.778 20.245,14.742 20.259,14.715 C20.275,14.682 20.292,14.647 20.307,14.611 C20.381,14.443 20.395,14.293 20.409,14.148 C20.415,14.082 20.421,14.013 20.435,13.941 C20.441,13.914 20.451,13.89 20.459,13.865 L14.981,14.976 L14.978,14.986 C14.961,15.041 14.966,15.098 14.992,15.148 C15.018,15.199 15.062,15.236 15.116,15.253 L15.119,15.254 L14.56,17.015 C14.543,17.068 14.548,17.126 14.574,17.177 C14.601,17.228 14.645,17.265 14.699,17.281 L14.701,17.282 L13.598,20.752 L16.228,20.218 C16.343,20.195 16.417,20.081 16.394,19.968 L16.394,19.964 L19.472,19.339 L19.914,17.944 C19.948,17.834 19.888,17.715 19.777,17.68 Z" id="Shape" fill="#FA6652" fill-rule="nonzero"></path>
                        <mask id="mask-2" fill="white">
                            <use xlink:href="#path-1"></use>
                        </mask>
                        <use id="Mask" fill="#FA6652" fill-rule="nonzero" xlink:href="#path-1"></use>
                    </g>
                    <g id="Group-4" transform="translate(25.000000, 11.000000)"></g>
                </g>
            </g>
        </g>
    </g>
</svg>